<svg class="dj-icon" viewBox="0 0 200 160" fill="none" xmlns="http://www.w3.org/2000/svg">
          <rect x="10" y="80" width="180" height="70" rx="4" fill="rgba(167,139,250,0.2)" stroke="rgba(167,139,250,0.5)" stroke-width="2"/>
          <circle cx="50"  cy="115" r="22" stroke="rgba(167,139,250,0.7)" stroke-width="2.5"/>
          <circle cx="50"  cy="115" r="10" stroke="rgba(167,139,250,0.5)" stroke-width="1.5"/>
          <circle cx="50"  cy="115" r="3"  fill="rgba(212,168,67,0.8)"/>
          <circle cx="150" cy="115" r="22" stroke="rgba(167,139,250,0.7)" stroke-width="2.5"/>
          <circle cx="150" cy="115" r="10" stroke="rgba(167,139,250,0.5)" stroke-width="1.5"/>
          <circle cx="150" cy="115" r="3"  fill="rgba(212,168,67,0.8)"/>
          <!-- Mixer in center -->
          <rect x="80" y="90" width="40" height="50" rx="2" fill="rgba(91,33,182,0.3)" stroke="rgba(167,139,250,0.4)" stroke-width="1"/>
          <rect x="85" y="95" width="30" height="20" rx="1" fill="rgba(167,139,250,0.15)"/>
          <circle cx="92"  cy="130" r="4" fill="rgba(212,168,67,0.6)"/>
          <circle cx="100" cy="130" r="4" fill="rgba(167,139,250,0.6)"/>
          <circle cx="108" cy="130" r="4" fill="rgba(212,168,67,0.6)"/>
          <!-- Sound waves above -->
          <path d="M85 50 Q100 30 115 50" stroke="rgba(167,139,250,0.6)" stroke-width="2.5" fill="none"/>
          <path d="M70 55 Q100 20 130 55" stroke="rgba(167,139,250,0.4)" stroke-width="2" fill="none"/>
          <path d="M55 60 Q100 10 145 60" stroke="rgba(167,139,250,0.2)" stroke-width="1.5" fill="none"/>
          <circle cx="100" cy="72" r="4" fill="rgba(167,139,250,0.8)"/>
        </svg>